<?xml version="1.0" encoding="utf-8"?>
<!-- Generator: Adobe Illustrator 28.2.0, SVG Export Plug-In . SVG Version: 6.00 Build 0)  -->
<svg version="1.1" id="Capa_1" xmlns="http://www.w3.org/2000/svg" xmlns:xlink="http://www.w3.org/1999/xlink" x="0px" y="0px"
	 viewBox="0 0 595.28 841.89" style="enable-background:new 0 0 595.28 841.89;" xml:space="preserve">
<style type="text/css">
	.st0{fill:none;stroke:#B2B247;stroke-width:5;stroke-miterlimit:10;}
	.st1{fill:none;}
</style>
<path class="st0" d="M179.91,388.06c-6.58-7.22-12.49-14.58-16.96-22.98c-8.46-15.9-12.61-32.61-8.51-50.51
	c6.09-26.58,31.5-42.82,59.18-38.66c18.38,2.76,34.09,10.7,47.88,22.85c1.23,1.08,2.45,2.18,4.05,3.61
	c3.94-13.88,9.64-26.46,18.68-37.27c11.29-13.5,25.07-23,43.07-24.42c22.5-1.77,42.02,11.04,51.68,33.38
	c8.33,19.26,8.54,39.06,3.5,59.15c-0.24,0.95-0.46,1.91-0.83,3.49c7.25-1.42,14.11-3.12,21.16-3.67
	c16.12-1.26,31.57,1.05,45.95,8.63c30.39,16.01,38.31,50.01,18.25,77.94c-11.41,15.89-27.17,25.61-45.44,31.72
	c-1.57,0.53-3.18,0.95-5.08,1.51c3.74,4.77,7.62,9.27,10.98,14.12c9.68,13.99,15.58,29.32,15.5,46.57
	c-0.15,33.32-27.49,56.42-60.56,51.53c-18.56-2.75-34.38-10.86-48.27-23.17c-0.99-0.88-1.97-1.77-2.97-2.64
	c-0.11-0.1-0.31-0.08-0.83-0.2c-3.73,13.27-9.35,25.7-18.21,36.43c-11.44,13.85-25.44,23.56-43.86,24.85
	c-22.26,1.56-41.67-11.28-51.22-33.38c-8.25-19.09-8.52-38.74-3.64-58.67c0.27-1.12,0.56-2.23,1.02-4.03
	c-7.6,1.59-14.79,3.33-22.18,3.8c-17.17,1.1-33.52-1.69-48.41-10.67c-28.4-17.12-34.28-50.94-13.52-77.99
	c11.43-14.89,26.81-24.11,44.48-29.79C176.35,389.09,177.92,388.66,179.91,388.06z M393.32,423.73c18.83,0.15,34.82-6.38,46.91-21
	c11.07-13.39,7.64-27.45-8.29-34.2c-15.31-6.48-30.82-5.88-45.94,0.84c-11.93,5.3-22.03,13.5-32.34,21.36
	c-1.91,1.45-1.68,2.69-0.78,4.62c3.12,6.67,5.2,13.68,5.24,21.1c0.01,2.64,1.27,3.44,3.48,3.79
	C372.12,421.86,382.61,423.6,393.32,423.73z M301.22,515.52c-0.02-10.55-1.84-20.87-3.43-31.22c-0.31-2.01-0.67-3.72-3.54-3.73
	c-7.59-0.02-14.76-2.13-21.58-5.31c-1.77-0.83-2.85-1.05-4.2,0.68c-8.41,10.74-17,21.43-22.31,34.09
	c-5.87,14.01-6.25,28.54-0.88,42.8c6.53,17.36,21.39,21.36,35.53,9.39C295.11,550.11,301.57,534.2,301.22,515.52z M294.86,325.12
	c-0.05,10.69,1.75,21.19,3.44,31.69c0.33,2.07,0.77,3.61,3.59,3.61c7.58,0.02,14.76,2.15,21.57,5.37c1.84,0.87,2.92,0.85,4.19-0.79
	c8.35-10.77,17.13-21.38,22.25-34.12c6.26-15.59,6.64-31.54-1.11-46.83c-6.45-12.74-18.01-15.51-30.04-7.9
	c-3.25,2.06-6.19,4.52-8.69,7.44C299.85,295.53,294.23,309.19,294.86,325.12z M388.22,534.06c15.88,0.24,24.51-9.03,23.31-22.86
	c-1.19-13.71-7.35-25.14-16.79-34.74c-12.01-12.22-28.08-17.27-43.38-23.62c-2-0.83-2.62,0.51-3.47,1.76
	c-4.26,6.26-9.51,11.55-15.79,15.78c-1.52,1.02-2.38,1.75-1.54,3.94c4.62,11.94,9.14,23.97,16.46,34.53
	C357.43,523.83,371.86,532.44,388.22,534.06z M202.97,417.27c-20.01-0.15-36.56,7.17-48.79,23.26c-3.8,5-5.86,10.85-4.19,17.33
	c2.13,8.26,8.44,12.54,15.73,15.4c11.68,4.58,23.78,4.7,35.75,1.48c16.15-4.34,28.56-15.17,41.51-24.99c2.09-1.59,0.61-2.93,0-4.31
	c-2.91-6.59-5.01-13.41-5.03-20.64c-0.01-2.91-1.4-3.69-3.76-4.05C223.85,419.15,213.52,417.37,202.97,417.27z M208.1,306.96
	c-16.02-0.4-24.79,8.75-23.4,22.77c1.82,18.35,10.99,32.54,26.23,42.61c10.14,6.7,21.47,11.12,32.81,15.42
	c2.07,0.78,3.14,0.73,4.43-1.25c4.13-6.34,9.41-11.63,15.74-15.8c1.82-1.2,2.33-2.18,1.46-4.42c-4.43-11.29-8.75-22.66-15.45-32.82
	C239.52,317.7,224.79,308.78,208.1,306.96z M326.95,420.41c-0.01-15.83-13-28.78-28.91-28.84c-16.05-0.06-29.07,13.08-28.99,29.26
	c0.07,15.67,13.3,28.63,29.21,28.61C314.06,449.42,326.97,436.37,326.95,420.41z"/>
<path class="st1" d="M393.32,423.73c-10.71-0.13-21.21-1.86-31.71-3.51c-2.22-0.35-3.47-1.15-3.48-3.79
	c-0.04-7.42-2.12-14.43-5.24-21.1c-0.9-1.92-1.13-3.16,0.78-4.62c10.3-7.85,20.41-16.05,32.34-21.36
	c15.12-6.72,30.63-7.32,45.94-0.84c15.93,6.75,19.36,20.81,8.29,34.2C428.15,417.35,412.15,423.88,393.32,423.73z"/>
<path class="st1" d="M301.22,515.52c0.35,18.68-6.11,34.59-20.41,46.7c-14.13,11.97-29,7.97-35.53-9.39
	c-5.37-14.26-4.99-28.8,0.88-42.8c5.31-12.66,13.9-23.35,22.31-34.09c1.35-1.72,2.43-1.5,4.2-0.68c6.83,3.18,14,5.29,21.58,5.31
	c2.87,0.01,3.23,1.71,3.54,3.73C299.37,494.65,301.2,504.97,301.22,515.52z"/>
<path class="st1" d="M294.85,325.11c-0.62-15.93,4.99-29.58,15.21-41.53c2.5-2.92,5.43-5.38,8.69-7.44
	c12.03-7.61,23.59-4.83,30.04,7.9c7.75,15.29,7.37,31.24,1.11,46.83c-5.12,12.74-13.9,23.35-22.25,34.12
	c-1.27,1.64-2.35,1.66-4.19,0.79c-6.81-3.22-13.98-5.35-21.57-5.37c-2.83-0.01-3.26-1.54-3.59-3.61
	C296.62,346.3,294.81,335.81,294.85,325.11z"/>
<path class="st1" d="M388.22,534.06c-16.36-1.61-30.8-10.23-41.2-25.23c-7.32-10.56-11.85-22.59-16.46-34.53
	c-0.84-2.18,0.02-2.91,1.54-3.94c6.28-4.23,11.53-9.52,15.79-15.78c0.85-1.25,1.47-2.59,3.47-1.76
	c15.3,6.35,31.37,11.41,43.38,23.62c9.44,9.6,15.6,21.03,16.79,34.74C412.73,525.02,404.1,534.3,388.22,534.06z"/>
<path class="st1" d="M202.97,417.27c10.55,0.1,20.88,1.87,31.22,3.46c2.36,0.36,3.75,1.14,3.76,4.05
	c0.02,7.24,2.12,14.06,5.03,20.64c0.61,1.38,2.09,2.73,0,4.31c-12.95,9.82-25.36,20.65-41.51,24.99
	c-11.96,3.21-24.07,3.1-35.75-1.48c-7.29-2.86-13.61-7.14-15.73-15.4c-1.67-6.47,0.39-12.32,4.19-17.33
	C166.41,424.44,182.96,417.13,202.97,417.27z"/>
<path class="st1" d="M208.1,306.96c16.69,1.82,31.42,10.74,41.81,26.51c6.7,10.17,11.02,21.53,15.45,32.82
	c0.88,2.23,0.36,3.22-1.46,4.42c-6.32,4.17-11.61,9.46-15.74,15.8c-1.29,1.98-2.36,2.04-4.43,1.25
	c-11.34-4.3-22.67-8.72-32.81-15.42c-15.24-10.07-24.41-24.26-26.23-42.61C183.31,315.71,192.08,306.56,208.1,306.96z"/>
<path class="st1" d="M326.95,420.41c0.01,15.96-12.89,29.01-28.69,29.03c-15.91,0.02-29.14-12.94-29.21-28.61
	c-0.07-16.18,12.94-29.32,28.99-29.26C313.95,391.62,326.94,404.57,326.95,420.41z"/>
</svg>
